<svg xmlns="http://www.w3.org/2000/svg" viewBox="0 0 73.4 14.56"><defs><style>.cls-1{fill:#4b4bdd;}</style></defs><title>资源 3</title><g id="图层_2" data-name="图层 2"><g id="图层_1-2" data-name="图层 1"><path d="M11.76.3V8.68a5.83,5.83,0,0,1-5.9,5.88A5.94,5.94,0,0,1,0,8.68V.3A.29.29,0,0,1,.28,0H1.36a.33.33,0,0,1,.32.3V8.42A4.26,4.26,0,0,0,5.94,13c2.64,0,4.16-2.08,4.16-4.54V.3a.32.32,0,0,1,.34-.3h.94C11.56,0,11.76.1,11.76.3Z"/><path d="M15,1.88a.3.3,0,0,1-.32-.34v-1c0-.2.1-.3.32-.3h4.84A3.82,3.82,0,0,1,23.64,4,4,4,0,0,1,22.32,7,4.15,4.15,0,0,1,24.4,10.5a4.1,4.1,0,0,1-4,4.06H14c-.2,0-.34-.1-.34-.3V6.68A.32.32,0,0,1,14,6.36h5.74a2.23,2.23,0,0,0,2.22-2.22,2.16,2.16,0,0,0-2.2-2.26Zm.3,11h5.08a2.47,2.47,0,0,0,2.32-2.44A2.4,2.4,0,0,0,20.38,8H15.3Z"/><path d="M38.2.22c.3,0,.38.14.38.32l-.1,13.72q0,.3-.36.3H36.84L28,2.56V10l3.5,0a.3.3,0,0,1,.3.32v1a.32.32,0,0,1-.32.34l-4.84,0c-.2,0-.3-.1-.3-.26V.48a.32.32,0,0,1,.34-.32H28a.39.39,0,0,1,.32.16l8.5,11.46L36.92.52a.31.31,0,0,1,.3-.3h1Zm-4.7,13v1a.33.33,0,0,1-.32.34H26.6a.27.27,0,0,1-.3-.3v-1c0-.2.1-.36.32-.36H33.2A.3.3,0,0,1,33.5,13.2Z"/><path class="cls-1" d="M40.48,14.24V.52c0-.2.12-.28.32-.28h9.46a.27.27,0,0,1,.3.3v1c0,.24-.1.36-.32.36H42.16V4.3h6.42a.32.32,0,0,1,.3.34v1a.32.32,0,0,1-.3.34H42.16V8.46h6.42a.3.3,0,0,1,.3.32v1a.33.33,0,0,1-.3.34H42.16V12.9h8a.33.33,0,0,1,.36.34v1a.31.31,0,0,1-.34.34H40.8A.28.28,0,0,1,40.48,14.24Z"/><path class="cls-1" d="M52.76,14.56a.27.27,0,0,1-.3-.3V.54c0-.22.14-.3.32-.3h1a.27.27,0,0,1,.3.3V12.9h7a.32.32,0,0,1,.3.34v1a.31.31,0,0,1-.3.3Z"/><path class="cls-1" d="M63.32,14.24V.52c0-.2.12-.28.32-.28H73.1a.27.27,0,0,1,.3.3v1c0,.24-.1.36-.32.36H65V4.3h6.42a.32.32,0,0,1,.3.34v1a.32.32,0,0,1-.3.34H65V8.46h6.42a.3.3,0,0,1,.3.32v1a.33.33,0,0,1-.3.34H65V12.9h8a.33.33,0,0,1,.36.34v1a.31.31,0,0,1-.34.34h-9.4A.28.28,0,0,1,63.32,14.24Z"/></g></g></svg>